<?xml version="1.0" standalone="no"?>
<!DOCTYPE svg PUBLIC "-//W3C//DTD SVG 20010904//EN"
 "http://www.w3.org/TR/2001/REC-SVG-20010904/DTD/svg10.dtd">
<svg version="1.0" xmlns="http://www.w3.org/2000/svg"
 width="700.000000pt" height="700.000000pt" viewBox="0 0 700.000000 700.000000"
 preserveAspectRatio="xMidYMid meet">
<metadata>
Created by potrace 1.11, written by Peter Selinger 2001-2013
</metadata>
<g transform="translate(0.000000,700.000000) scale(0.100000,-0.100000)"
fill="#000000" stroke="none">
<path d="M2332 6975 c-261 -70 -521 -296 -769 -670 -168 -252 -246 -458 -246
-650 -1 -111 4 -139 34 -220 79 -211 319 -388 679 -500 77 -24 186 -54 229
-61 12 -3 51 -11 85 -19 33 -8 76 -17 94 -20 83 -14 97 -16 100 -20 2 -1 -552
-3 -1230 -3 -678 -1 -1250 -1 -1270 -1 l-38 -1 0 -655 0 -655 3500 0 3500 0 0
655 0 655 -32 1 c-18 0 -593 1 -1278 1 -685 0 -1233 4 -1219 8 15 4 47 10 72
13 25 3 62 10 83 16 22 6 55 13 74 16 19 3 43 8 52 11 9 3 25 6 35 8 33 7 107
27 168 47 384 124 611 302 687 539 25 79 31 227 13 320 -72 375 -431 886 -764
1089 -211 129 -426 152 -626 68 -209 -88 -459 -363 -667 -736 -11 -20 -38 -67
-60 -104 l-40 -69 -52 94 c-89 158 -95 169 -187 306 -161 240 -291 376 -447
471 -140 84 -321 109 -480 66z m257 -441 c59 -30 154 -119 221 -209 25 -33 48
-62 51 -65 12 -11 140 -222 190 -315 67 -124 151 -294 196 -399 l34 -80 -31
-64 c-33 -69 -62 -176 -51 -188 11 -11 -314 11 -454 31 -16 2 -52 7 -80 10
-27 3 -75 10 -105 15 -30 5 -71 12 -90 15 -191 30 -446 104 -577 167 -83 41
-153 104 -154 141 -1 15 -2 33 -3 40 -4 27 26 133 57 200 130 281 456 646 635
712 57 21 103 18 161 -11z m1983 9 c183 -71 483 -402 623 -688 76 -154 88
-264 35 -320 -36 -38 -132 -91 -237 -130 -86 -33 -317 -96 -398 -109 -16 -3
-70 -12 -120 -20 -106 -18 -180 -28 -305 -41 -169 -19 -371 -29 -368 -19 6 23
-16 106 -48 175 l-34 77 40 94 c52 117 178 368 238 473 154 266 297 438 415
499 59 30 99 33 159 9z m-661 -1732 l26 -1 0 -435 0 -435 -21 -1 c-26 -1 -839
-1 -847 0 -9 1 -7 865 2 871 5 4 675 4 840 1z"/>
<path d="M442 3056 c-4 -7 -7 -2981 -3 -3044 1 -10 617 -12 3063 -10 l3061 3
0 1523 c0 837 -3 1525 -6 1528 -8 9 -2605 9 -2614 1 -3 -4 -6 -594 -6 -1312 0
-1191 -1 -1305 -16 -1306 -21 -1 -833 -1 -847 0 -8 1 -11 359 -11 1306 0 718
-3 1308 -6 1311 -10 10 -2608 10 -2615 0z"/>
</g>
</svg>
